<?xml version="1.0" encoding="UTF-8"?>
<svg version="1.1" xmlns="http://www.w3.org/2000/svg" width="1000" height="1000">
<path d="M0 0 C3.87364449 1.37165401 6.80397624 3.157286 10.07421875 5.6328125 C15.85549197 9.92592344 21.79963802 13.91559444 27.8125 17.875 C34.27939276 22.15739764 40.72219651 26.44415245 47 31 C53.21784628 35.51098652 59.59668684 39.75721793 66 44 C73.5043707 48.97233364 80.90125066 54.02639754 88.1875 59.3125 C93.36533655 63.01095468 98.69636554 66.4858559 104 70 C111.5043707 74.97233364 118.90125066 80.02639754 126.1875 85.3125 C131.36533655 89.01095468 136.69636554 92.4858559 142 96 C149.5043707 100.97233364 156.90125066 106.02639754 164.1875 111.3125 C169.36533655 115.01095468 174.69636554 118.4858559 180 122 C187.5043707 126.97233364 194.90125066 132.02639754 202.1875 137.3125 C208.39542517 141.74673227 214.81021061 145.88658022 221.16894531 150.09960938 C227.86761397 154.54848865 234.48666867 159.06252402 240.9296875 163.875 C243.98035615 166.09400643 243.98035615 166.09400643 247.5078125 167.75 C251.00595057 169.56805784 253.43535827 170.99636554 256 174 C256.75775451 178.43495584 256.55632153 182.42188107 256.2421875 186.88671875 C253.42765684 228.81997185 277.98153389 274.21978629 303 306 C303.70511719 306.89847656 304.41023438 307.79695313 305.13671875 308.72265625 C311.07950967 316.13780829 317.45987473 323.11351296 324 330 C324.78503906 330.82757812 325.57007813 331.65515625 326.37890625 332.5078125 C331.02392396 337.27747291 335.94257662 341.54221597 341.140625 345.69921875 C343.99633345 347.99704973 346.77667313 350.36819499 349.5625 352.75 C384.26603718 381.66961432 426.63045678 405.15443863 468.859375 420.8359375 C469.57061523 421.10277344 470.28185547 421.36960937 471.01464844 421.64453125 C472.83494114 422.31427003 474.66701569 422.95175766 476.5 423.5859375 C479 425 479 425 480.05859375 427.2421875 C479.8841919 435.45070138 472.97460111 445.13856712 467.41796875 450.91015625 C457.77832309 459.24167552 444.10602068 468.0846565 431 468 C427.94347718 467.23169618 425.20662134 465.96170947 422.3671875 464.609375 C421.54931259 464.23791351 420.73143768 463.86645203 419.88877869 463.48373413 C417.20794419 462.25884986 414.54154889 461.00564585 411.875 459.75 C410.00129939 458.88307766 408.12718843 458.01704172 406.25268555 457.15185547 C362.13560215 436.68527639 362.13560215 436.68527639 343.87109375 425.84765625 C342.81881592 425.2242334 341.76653809 424.60081055 340.68237305 423.95849609 C338.81038764 422.82791728 336.95419988 421.67046266 335.12036133 420.47900391 C330.82947718 417.85287499 328.07268729 416.56210987 323.03125 417.51953125 C321.34678424 417.98720163 319.66941923 418.48117449 318 419 C316.3095242 419.41544209 314.61675658 419.82166439 312.921875 420.21875 C312.07818359 420.42790039 311.23449219 420.63705078 310.36523438 420.85253906 C301.27154389 423.10388962 292.32737657 425.00846182 283 426 C282.00871094 426.11085938 281.01742188 426.22171875 279.99609375 426.3359375 C269.69113555 427.3098416 259.33924976 427.0953129 249 427 C249.8589571 422.67094912 252.20023375 420.10622283 255.0625 416.875 C256.07005078 415.71183787 257.07655316 414.54776681 258.08203125 413.3828125 C258.57912598 412.80950195 259.0762207 412.23619141 259.58837891 411.64550781 C265.3096213 404.97633215 270.62761804 397.95051916 276 391 C275.23042969 391.23783203 275.23042969 391.23783203 274.4453125 391.48046875 C272.73822995 392.00064037 271.02812474 392.51091802 269.31640625 393.015625 C266.96387808 393.71390191 264.6180763 394.4350232 262.27734375 395.171875 C239.13722562 402.2506789 216.02478959 403.68274623 192 403 C193.39512927 399.32556839 194.71986188 396.91573753 197.4375 394.0625 C200.85227188 390.34119564 204.03338685 386.49075637 207.125 382.5 C211.98056759 376.24368833 216.98197644 370.11975982 222.05322266 364.03710938 C229.23408796 356.71212022 229.23408796 356.71212022 233 348 C232.02466309 348.01571045 231.04932617 348.0314209 230.04443359 348.04760742 C183.6531572 348.72732914 133.59036606 341.46558185 95 313 C95 312.34 95 311.68 95 311 C113.97729047 302.04334839 132.96900534 293.12328012 152.03759766 284.36230469 C157.36115739 281.91418673 162.68038886 279.45668344 168 277 C167.34330322 276.94054199 166.68660645 276.88108398 166.01000977 276.81982422 C129.45977127 273.38166406 93.93612288 264.03725335 64 242 C63.42765625 241.5870166 62.8553125 241.1740332 62.265625 240.74853516 C44.59080774 227.90543174 28.23360688 211.46881309 18 192 C18 191.67 18 191.34 18 191 C56.28 190.67 94.56 190.34 134 190 C126.08 186.535 126.08 186.535 118 183 C114.94246809 181.46155831 111.96755935 179.93403666 109 178.25 C108.25999756 177.83371338 107.51999512 177.41742676 106.75756836 176.98852539 C56.53178888 148.23077688 22.94199658 102.23172712 7 47 C2.86356163 31.65049874 -0.58663484 15.96950395 0 0 Z " fill="#E1A14B" transform="translate(0,233)"/>
<path d="M0 0 C0.23866526 7.4129021 -0.4256258 14.43859646 -1.625 21.75 C-1.80248779 22.83619629 -1.97997559 23.92239258 -2.1628418 25.04150391 C-10.97202411 76.43151528 -36.86520872 124.47104006 -78 157 C-79.50046875 158.20849609 -79.50046875 158.20849609 -81.03125 159.44140625 C-91.916827 168.11002388 -103.61593142 175.31429034 -115.875 181.875 C-116.53983398 182.23215088 -117.20466797 182.58930176 -117.88964844 182.95727539 C-123.18090764 185.7263677 -128.37850547 187.75140219 -134 190 C-96.05 190.33 -58.1 190.66 -19 191 C-24.97329568 214.8931827 -55.47171146 237.62642851 -75.375 249.75 C-104.29058573 266.729838 -134.86466456 273.81192495 -168 277 C-131.65953137 294.34512131 -131.65953137 294.34512131 -95 311 C-98.46698358 314.94549955 -102.45125624 317.20364972 -107 319.6875 C-108.18662231 320.33779175 -108.18662231 320.33779175 -109.3972168 321.0012207 C-142.65166891 338.93455719 -178.18997711 348.53065409 -216 348.125 C-217.66145283 348.11493256 -219.32291169 348.10581347 -220.984375 348.09765625 C-224.98973681 348.07598111 -228.99479835 348.04166743 -233 348 C-231.37244158 352.38735144 -229.14417396 355.46708399 -226.0625 358.9375 C-222.14607127 363.45283611 -218.34947214 368.02585924 -214.6875 372.75 C-209.80299929 379.03672401 -204.76611307 385.18899376 -199.68237305 391.31542969 C-199.11687744 391.99766602 -198.55138184 392.67990234 -197.96875 393.3828125 C-197.46794922 393.98496582 -196.96714844 394.58711914 -196.45117188 395.20751953 C-192 400.70558546 -192 400.70558546 -192 403 C-217.88914821 403.73572833 -242.06710858 401.5469393 -266.88867188 393.66308594 C-269.90934178 392.71441116 -272.95184716 391.85576483 -276 391 C-275.18917969 391.99257813 -274.37835937 392.98515625 -273.54296875 394.0078125 C-266.26603501 402.93106135 -259.05730157 411.90173665 -252 421 C-251.40445313 421.74765625 -250.80890625 422.4953125 -250.1953125 423.265625 C-249 425 -249 425 -249 427 C-273.97374011 427.45544815 -298.29093849 425.43589009 -322.15234375 417.63671875 C-328.38593713 416.24292489 -332.64734745 419.2803921 -337.875 422.3125 C-348.77091861 428.49353526 -359.85837823 434.2762797 -371 440 C-372.33756348 440.69029297 -372.33756348 440.69029297 -373.70214844 441.39453125 C-388.58236907 449.05257583 -403.75544208 455.98435251 -419.07397461 462.71142578 C-420.80644421 463.47437735 -422.53539981 464.24553884 -424.25610352 465.03466797 C-429.39220133 467.36150383 -432.61839152 467.54214482 -438 466 C-455.60354323 458.95858271 -467.80268707 447.01033848 -476.3203125 430.05859375 C-477 428 -477 428 -476 425 C-473.76391602 423.82763672 -473.76391602 423.82763672 -470.75390625 422.6796875 C-469.623479 422.23568604 -468.49305176 421.79168457 -467.32836914 421.33422852 C-466.71671906 421.09793732 -466.10506897 420.86164612 -465.47488403 420.61819458 C-433.95193442 408.36768166 -403.76748346 392.29376384 -376 373 C-375.14365967 372.4117041 -375.14365967 372.4117041 -374.27001953 371.81152344 C-361.55779422 363.06001679 -349.51952112 353.40915251 -338.15234375 342.96875 C-336.15629901 341.14296679 -334.12024334 339.38049935 -332.0625 337.625 C-324.04784171 330.61217399 -316.78181094 323.04931748 -310.16015625 314.7109375 C-308.78272561 312.98229941 -307.37631222 311.27609773 -305.93359375 309.6015625 C-279.36418793 278.57945699 -261.53417757 239.19836422 -256.6875 198.625 C-256.59855469 197.89587402 -256.50960937 197.16674805 -256.41796875 196.41552734 C-256.04094736 192.74204924 -255.9948767 189.44094197 -256.5546875 185.78515625 C-257.14032408 181.54280086 -257.24820488 178.1810499 -256 174 C-251.562985 169.00381487 -245.41377717 165.86077404 -239.68115234 162.57666016 C-235.47004308 160.10030397 -231.50130744 157.29802633 -227.5 154.5 C-225.91788274 153.41489146 -224.33454454 152.33156098 -222.75 151.25 C-221.574375 150.445625 -221.574375 150.445625 -220.375 149.625 C-42.25 27.75 -42.25 27.75 -39.87207031 26.12304688 C-38.29843865 25.04631743 -36.7248703 23.96949543 -35.15136719 22.89257812 C-31.04512906 20.0824193 -26.9376026 17.27416982 -22.828125 14.46875 C-21.97798828 13.88802734 -21.12785156 13.30730469 -20.25195312 12.70898438 C-18.63647852 11.60551812 -17.02062046 10.50261295 -15.40429688 9.40039062 C-14.66759766 8.89701172 -13.93089844 8.39363281 -13.171875 7.875 C-12.46998047 7.39546875 -11.76808594 6.9159375 -11.04492188 6.421875 C-9.03095172 5.02152135 -7.05475485 3.57738437 -5.078125 2.125 C-2 0 -2 0 0 0 Z " fill="#E09F48" transform="translate(1000,233)"/>
<path d="M0 0 C1.23046875 1.5546875 1.23046875 1.5546875 1.60546875 4.0546875 C1.15754036 7.04087678 0.52034503 7.67074383 -1.76953125 9.5546875 C-8.61935326 12.19379641 -16.53453149 12.12975707 -23.76953125 12.5546875 C-21.7160479 13.45064363 -19.65127468 14.32075626 -17.58203125 15.1796875 C-15.85919922 15.91058594 -15.85919922 15.91058594 -14.1015625 16.65625 C-10.23666032 17.69836899 -9.21000807 17.43380143 -5.76953125 15.5546875 C-4.78855469 15.06871094 -3.80757812 14.58273437 -2.796875 14.08203125 C-0.73386043 13.02053071 1.32863849 11.95802744 3.390625 10.89453125 C10.40649926 7.58442827 19.1100229 7.23463824 26.609375 9.16796875 C28.68764596 10.12103442 30.39159392 11.19468632 32.23046875 12.5546875 C33.01421875 13.12574219 33.79796875 13.69679688 34.60546875 14.28515625 C39.98123128 18.60127328 43.32219874 22.58713676 44.23046875 29.5546875 C44.16159426 32.05253556 43.80412445 34.10361314 43.23046875 36.5546875 C42.57046875 36.5546875 41.91046875 36.5546875 41.23046875 36.5546875 C41.23046875 35.8946875 41.23046875 35.2346875 41.23046875 34.5546875 C40.36421875 34.1215625 40.36421875 34.1215625 39.48046875 33.6796875 C37.23046875 32.5546875 37.23046875 32.5546875 35.35546875 31.4296875 C32.39367771 30.21012648 30.42114811 30.17931346 27.23046875 30.5546875 C25.57711621 31.55966649 23.92465741 32.56632927 22.28515625 33.59375 C17.33189415 35.91029463 11.27164601 36.07498758 6.04296875 34.7421875 C2.05503324 34.47632513 0.37189501 36.07164212 -2.62890625 38.57421875 C-17.77157907 52.58395437 -23.06377092 68.53206102 -25.76953125 88.5546875 C-27.45703125 89.3671875 -27.45703125 89.3671875 -29.76953125 89.5546875 C-32.51953125 87.1171875 -32.51953125 87.1171875 -34.76953125 84.5546875 C-35.58708195 87.09482659 -36.39868311 89.63661981 -37.20703125 92.1796875 C-37.43712891 92.89253906 -37.66722656 93.60539062 -37.90429688 94.33984375 C-38.12666016 95.04238281 -38.34902344 95.74492187 -38.578125 96.46875 C-38.88447876 97.4270874 -38.88447876 97.4270874 -39.19702148 98.40478516 C-39.91378289 101.0963847 -40.34302598 103.80381413 -40.76953125 106.5546875 C-36.84355249 104.60440039 -32.91910758 102.65106482 -28.99584961 100.6953125 C-27.67103655 100.03536491 -26.34586113 99.37614404 -25.02026367 98.71777344 C-16.31761159 94.39471356 -7.68561345 89.9545897 0.90452576 85.4120636 C9.07533836 81.09589925 17.2983596 76.88438369 25.52856445 72.68286133 C30.00093558 70.39943092 34.4711579 68.11180141 38.94140625 65.82421875 C39.82644836 65.37136505 40.71149048 64.91851135 41.62335205 64.45193481 C49.33518608 60.50441299 57.03627543 56.53646827 64.73046875 52.5546875 C66.44012817 51.67055176 66.44012817 51.67055176 68.18432617 50.76855469 C73.35420917 48.09188765 78.51938061 45.40667559 83.67391968 42.70059204 C85.45652776 41.7648133 87.23997433 40.8306324 89.0234375 39.89648438 C91.23236657 38.7386395 93.43949946 37.57735922 95.64453125 36.41210938 C96.61519531 35.90357422 97.58585937 35.39503906 98.5859375 34.87109375 C99.43824951 34.42193604 100.29056152 33.97277832 101.16870117 33.51000977 C103.23046875 32.5546875 103.23046875 32.5546875 105.23046875 32.5546875 C104.69167613 39.65364432 103.13733694 45.88550961 100.85546875 52.6171875 C100.50532715 53.65431885 100.15518555 54.6914502 99.79443359 55.76000977 C93.59090478 73.60288599 85.45918517 90.67004626 75.23046875 106.5546875 C74.8029834 107.21871582 74.37549805 107.88274414 73.93505859 108.56689453 C58.5981294 132.10927973 39.44099812 154.27044791 17.23046875 171.5546875 C15.96350106 172.56244895 14.69657685 173.57026507 13.4296875 174.578125 C-14.23939872 196.37900455 -45.39611225 212.23082293 -78.50689697 223.98214722 C-79.9165104 224.48333818 -81.32424912 224.9898378 -82.72991943 225.50198364 C-97.07464856 230.6971122 -97.07464856 230.6971122 -104.76953125 228.5546875 C-106.01428223 228.22102173 -106.01428223 228.22102173 -107.28417969 227.88061523 C-110.12115822 227.05388993 -112.91078965 226.13502934 -115.70703125 225.1796875 C-117.25934448 224.65338745 -117.25934448 224.65338745 -118.84301758 224.11645508 C-170.76820978 206.11733174 -220.70736957 175.41891009 -254.76953125 131.5546875 C-255.96835937 130.04648437 -255.96835937 130.04648437 -257.19140625 128.5078125 C-275.8833796 104.83909668 -305.17028466 64.08037038 -302.76953125 32.5546875 C-297.17589082 34.13864717 -292.43380549 36.79708574 -287.39453125 39.6171875 C-277.98539082 44.81714494 -268.52006657 49.89961864 -259.01953125 54.9296875 C-249.16958525 60.1491868 -239.33077447 65.3876357 -229.51953125 70.6796875 C-228.48586426 71.2370459 -227.45219727 71.7944043 -226.38720703 72.36865234 C-224.28447667 73.50255124 -222.18177508 74.6365035 -220.07910156 75.77050781 C-214.62753665 78.70943053 -209.17443007 81.64544769 -203.71789551 84.57513428 C-201.96327801 85.51775516 -200.20964589 86.46220953 -198.45605469 87.40673828 C-196.28896738 88.56971404 -194.11753216 89.72463162 -191.94140625 90.87060547 C-189.78014306 92.01811113 -187.63460988 93.1956262 -185.50390625 94.39892578 C-184.45976562 94.96853027 -183.415625 95.53813477 -182.33984375 96.125 C-181.41703613 96.64336426 -180.49422852 97.16172852 -179.54345703 97.69580078 C-175.84423349 98.84118614 -173.99889326 97.97786249 -170.51953125 96.4296875 C-168.91010148 95.51585873 -167.31598979 94.57145355 -165.76953125 93.5546875 C-167.99732961 92.40516255 -170.06462423 91.45861072 -172.45703125 90.6796875 C-174.76953125 89.5546875 -174.76953125 89.5546875 -175.89453125 87.7421875 C-175.69122287 84.18429079 -173.34537995 82.87468009 -170.76953125 80.5546875 C-168.55158466 79.07605644 -166.39586323 77.72913143 -164.08203125 76.4296875 C-162.94378906 75.76710938 -161.80554688 75.10453125 -160.6328125 74.421875 C-149.21527541 68.6455778 -138.32676874 69.30612598 -125.8581543 69.61621094 C-116.36721766 69.83116411 -107.81605726 69.94005043 -98.76953125 66.5546875 C-99.39706299 66.51504883 -100.02459473 66.47541016 -100.67114258 66.43457031 C-118.9662941 65.22811347 -137.10630269 63.81009799 -153.76953125 55.5546875 C-154.55328125 55.18730469 -155.33703125 54.81992187 -156.14453125 54.44140625 C-164.78048701 50.07844943 -174.15253847 42.82954609 -177.76953125 33.5546875 C-177.59175347 29.37690972 -177.59175347 29.37690972 -175.76953125 27.5546875 C-170.50086931 27.9310205 -165.98646005 28.99820839 -161.04296875 30.8359375 C-135.13486098 39.02681693 -104.87706539 27.1864113 -82.08984375 15.3515625 C-79.26515151 13.82290553 -76.50360459 12.23879351 -73.76953125 10.5546875 C-74.75953125 9.5646875 -74.75953125 9.5646875 -75.76953125 8.5546875 C-75.39453125 5.9296875 -75.39453125 5.9296875 -74.76953125 3.5546875 C-17.57423857 -14.35423459 -17.57423857 -14.35423459 0 0 Z " fill="#E6BD6F" transform="translate(598.76953125,391.4453125)"/>
<path d="M0 0 C0.33 0 0.66 0 1 0 C1.21914063 1.17175781 1.43828125 2.34351563 1.6640625 3.55078125 C4.91199516 20.01679967 10.9156895 33.06841203 25.25 42.875 C33.82599501 47.96774774 43.11067864 50.32953754 53 51 C49.60147805 52.96931467 46.41521579 53.53590561 42.5625 54.1875 C30.13973927 56.79331274 19.7616204 62.86750921 12 73 C5.95762585 82.36542411 2.6509041 91.99397268 1 103 C0.67 103 0.34 103 0 103 C-0.08636719 102.27296875 -0.17273438 101.5459375 -0.26171875 100.796875 C-2.29172598 86.27021778 -8.08497238 73.35335222 -19.48046875 63.84765625 C-29.39317013 56.57834191 -40.16367027 54.23575117 -52 52 C-52 51.67 -52 51.34 -52 51 C-51.12859375 50.91363281 -50.2571875 50.82726562 -49.359375 50.73828125 C-35.11793303 49.05828431 -22.52014706 44.34146005 -12.7109375 33.4609375 C-4.84303031 23.23560494 -1.37555347 12.72900228 0 0 Z " fill="#E1A44F" transform="translate(501,663)"/>
</svg>
